# xmcd
#
# Track frame offsets:
#	200
#	11537
#	25552
#	40480
#	52947
#	65027
#	79042
#	92330
#	105395
#	120665
#	135372
#
# Disc length: 1980 seconds
#
# Revision: 1
# Processed by: cddbd v1.5.2PL0 Copyright (c) Steve Scherf et al.
# Submitted via: audiograbber 1.83.01
#
DISCID=7a07ba0b
DTITLE=Various Artist - CD Single Series
DYEAR=1991
DGENRE=Country
TTITLE0=Jules - Callin' You Baby
TTITLE1=Susan Jacks - Sweet New Love
TTITLE2=Hal Bruce - I'm Going Home
TTITLE3=Ronnie Prophet - The Feeling of Love
TTITLE4=Kelita - Merry Go Round
TTITLE5=The Bobby Lalonde Band - Somebody Painted My Hometown
TTITLE6=Shucks - Highway
TTITLE7=Dianne Ticknor - You and Yesterday
TTITLE8=Donna and Leroy - Street Hearts
TTITLE9=Debbie Drummond - Eyes For This Guy
TTITLE10=Eddie Eastman - Runaway Heart
EXTD=
EXTT0=
EXTT1=
EXTT2=
EXTT3=
EXTT4=
EXTT5=
EXTT6=
EXTT7=
EXTT8=
EXTT9=
EXTT10=
PLAYORDER=
